<?xml version="1.0" encoding="UTF-8" standalone="no"?>
<!-- Created with Inkscape (http://www.inkscape.org/) -->
<svg xmlns:rdf="http://www.w3.org/1999/02/22-rdf-syntax-ns#" xmlns="http://www.w3.org/2000/svg" height="270" width="630" version="1.1" xmlns:cc="http://creativecommons.org/ns#" xmlns:xlink="http://www.w3.org/1999/xlink" viewBox="0 0 630 270" xmlns:dc="http://purl.org/dc/elements/1.1/">
 <metadata>
  <rdf:RDF>
   <cc:Work rdf:about="">
    <dc:format>image/svg+xml</dc:format>
    <dc:type rdf:resource="http://purl.org/dc/dcmitype/StillImage"/>
    <dc:title/>
   </cc:Work>
  </rdf:RDF>
 </metadata>
 <rect height="230" width="630" y="0.000005" x="0.000005" stroke-width="0" fill="#555"/>
 <rect height="40" width="630" y="230" x=".0000050025" stroke-width="0" fill="#444"/>
 <g fill="#fff">
  <circle cy="105" cx="5" r="5"/>
  <circle cy="105" cx="15" r="5"/>
  <circle cy="105" cx="25" r="5"/>
  <circle cy="105" cx="35" r="5"/>
  <circle cy="105" cx="45" r="5"/>
  <circle cy="105" cx="55" r="5"/>
  <circle cy="105" cx="65" r="5"/>
  <circle cy="5" cx="5" r="5"/>
  <circle cy="5" cx="15" r="5"/>
  <circle cy="5" cx="25" r="5"/>
  <circle cy="5" cx="35" r="5"/>
  <circle cy="5" cx="45" r="5"/>
  <circle cy="5" cx="55" r="5"/>
  <circle cy="5" cx="65" r="5"/>
  <circle cy="15" cx="5" r="5"/>
  <circle cy="15" cx="15" r="5"/>
  <circle cy="15" cx="25" r="5"/>
  <circle cy="15" cx="65" r="5"/>
  <circle cy="25" cx="5" r="5"/>
  <circle cy="25" cx="15" r="5"/>
  <circle cy="25" cx="25" r="5"/>
  <circle cy="25" cx="35" r="5"/>
  <circle cy="25" cx="55" r="5"/>
  <circle cy="25" cx="65" r="5"/>
  <circle cy="35" cx="5" r="5"/>
  <circle cy="35" cx="15" r="5"/>
  <circle cy="35" cx="25" r="5"/>
  <circle cy="35" cx="35" r="5"/>
  <circle cy="35" cx="55" r="5"/>
  <circle cy="35" cx="65" r="5"/>
  <circle cy="45" cx="5" r="5"/>
  <circle cy="45" cx="15" r="5"/>
  <circle cy="45" cx="25" r="5"/>
  <circle cy="45" cx="35" r="5"/>
  <circle cy="45" cx="55" r="5"/>
  <circle cy="45" cx="65" r="5"/>
  <circle cy="55" cx="5" r="5"/>
  <circle cy="55" cx="15" r="5"/>
  <circle cy="55" cx="25" r="5"/>
  <circle cy="55" cx="35" r="5"/>
  <circle cy="55" cx="55" r="5"/>
  <circle cy="55" cx="65" r="5"/>
  <circle cy="65" cx="5" r="5"/>
  <circle cy="65" cx="15" r="5"/>
  <circle cy="65" cx="25" r="5"/>
  <circle cy="65" cx="35" r="5"/>
  <circle cy="65" cx="55" r="5"/>
  <circle cy="65" cx="65" r="5"/>
  <circle cy="75" cx="5" r="5"/>
  <circle cy="75" cx="15" r="5"/>
  <circle cy="75" cx="25" r="5"/>
  <circle cy="75" cx="35" r="5"/>
  <circle cy="75" cx="55" r="5"/>
  <circle cy="75" cx="65" r="5"/>
  <circle cy="85" cx="5" r="5"/>
  <circle cy="85" cx="25" r="5"/>
  <circle cy="85" cx="35" r="5"/>
  <circle cy="85" cx="55" r="5"/>
  <circle cy="85" cx="65" r="5"/>
  <circle cy="95" cx="5" r="5"/>
  <circle cy="95" cx="15" r="5"/>
  <circle cy="95" cx="45" r="5"/>
  <circle cy="95" cx="55" r="5"/>
  <circle cy="95" cx="65" r="5"/>
  <g id="O" fill="#fff">
   <circle cy="105" cx="85" r="5"/>
   <circle cy="105" cx="95" r="5"/>
   <circle cy="105" cx="105" r="5"/>
   <circle cy="105" cx="115" r="5"/>
   <circle cy="105" cx="125" r="5"/>
   <circle cy="105" cx="135" r="5"/>
   <circle cy="105" cx="145" r="5"/>
   <circle cy="5" cx="85" r="5"/>
   <circle cy="5" cx="95" r="5"/>
   <circle cy="5" cx="105" r="5"/>
   <circle cy="5" cx="115" r="5"/>
   <circle cy="5" cx="125" r="5"/>
   <circle cy="5" cx="135" r="5"/>
   <circle cy="5" cx="145" r="5"/>
   <circle cy="15" cx="85" r="5"/>
   <circle cy="15" cx="95" r="5"/>
   <circle cy="25" cx="145" r="5"/>
   <circle cy="15" cx="145" r="5"/>
   <circle cy="25" cx="85" r="5"/>
   <circle cy="25" cx="105" r="5"/>
   <circle cy="25" cx="115" r="5"/>
   <circle cy="15" cx="135" r="5"/>
   <circle cy="25" cx="125" r="5"/>
   <circle cy="35" cx="85" r="5"/>
   <circle cy="35" cx="105" r="5"/>
   <circle cy="35" cx="115" r="5"/>
   <circle cy="35" cx="125" r="5"/>
   <circle cy="35" cx="145" r="5"/>
   <circle cy="45" cx="85" r="5"/>
   <circle cy="45" cx="105" r="5"/>
   <circle cy="45" cx="115" r="5"/>
   <circle cy="45" cx="125" r="5"/>
   <circle cy="45" cx="145" r="5"/>
   <circle cy="55" cx="85" r="5"/>
   <circle cy="55" cx="105" r="5"/>
   <circle cy="55" cx="115" r="5"/>
   <circle cy="55" cx="125" r="5"/>
   <circle cy="55" cx="145" r="5"/>
   <circle cy="65" cx="85" r="5"/>
   <circle cy="65" cx="105" r="5"/>
   <circle cy="65" cx="115" r="5"/>
   <circle cy="65" cx="125" r="5"/>
   <circle cy="65" cx="145" r="5"/>
   <circle cy="75" cx="85" r="5"/>
   <circle cy="75" cx="105" r="5"/>
   <circle cy="75" cx="115" r="5"/>
   <circle cy="75" cx="125" r="5"/>
   <circle cy="75" cx="145" r="5"/>
   <circle cy="85" cx="85" r="5"/>
   <circle cy="85" cx="105" r="5"/>
   <circle cy="85" cx="115" r="5"/>
   <circle cy="85" cx="125" r="5"/>
   <circle cy="85" cx="145" r="5"/>
   <circle cy="95" cx="85" r="5"/>
   <circle cy="95" cx="95" r="5"/>
   <circle cy="95" cx="135" r="5"/>
   <circle cy="95" cx="145" r="5"/>
  </g>
  <circle cy="105" cx="165" r="5"/>
  <circle cy="105" cx="175" r="5"/>
  <circle cy="105" cx="185" r="5"/>
  <circle cy="105" cx="195" r="5"/>
  <circle cy="105" cx="205" r="5"/>
  <circle cy="105" cx="215" r="5"/>
  <circle cy="105" cx="225" r="5"/>
  <circle cy="5" cx="165" r="5"/>
  <circle cy="5" cx="175" r="5"/>
  <circle cy="5" cx="185" r="5"/>
  <circle cy="5" cx="195" r="5"/>
  <circle cy="5" cx="205" r="5"/>
  <circle cy="5" cx="215" r="5"/>
  <circle cy="5" cx="225" r="5"/>
  <circle cy="15" cx="165" r="5"/>
  <circle cy="15" cx="185" r="5"/>
  <circle cy="25" cx="225" r="5"/>
  <circle cy="15" cx="225" r="5"/>
  <circle cy="25" cx="165" r="5"/>
  <circle cy="25" cx="185" r="5"/>
  <circle cy="15" cx="195" r="5"/>
  <circle cy="25" cx="195" r="5"/>
  <circle cy="25" cx="205" r="5"/>
  <circle cy="35" cx="165" r="5"/>
  <circle cy="35" cx="185" r="5"/>
  <circle cy="35" cx="195" r="5"/>
  <circle cy="35" cx="205" r="5"/>
  <circle cy="35" cx="225" r="5"/>
  <circle cy="45" cx="165" r="5"/>
  <circle cy="45" cx="185" r="5"/>
  <circle cy="45" cx="195" r="5"/>
  <circle cy="45" cx="205" r="5"/>
  <circle cy="45" cx="225" r="5"/>
  <circle cy="55" cx="165" r="5"/>
  <circle cy="95" cx="195" r="5"/>
  <circle cy="95" cx="205" r="5"/>
  <circle cy="55" cx="225" r="5"/>
  <circle cy="65" cx="165" r="5"/>
  <circle cy="65" cx="185" r="5"/>
  <circle cy="65" cx="195" r="5"/>
  <circle cy="65" cx="205" r="5"/>
  <circle cy="65" cx="225" r="5"/>
  <circle cy="75" cx="165" r="5"/>
  <circle cy="75" cx="185" r="5"/>
  <circle cy="75" cx="195" r="5"/>
  <circle cy="75" cx="205" r="5"/>
  <circle cy="75" cx="225" r="5"/>
  <circle cy="85" cx="165" r="5"/>
  <circle cy="85" cx="185" r="5"/>
  <circle cy="85" cx="195" r="5"/>
  <circle cy="85" cx="205" r="5"/>
  <circle cy="85" cx="225" r="5"/>
  <circle cy="95" cx="165" r="5"/>
  <circle cy="95" cx="185" r="5"/>
  <circle cy="15" cx="205" r="5"/>
  <circle cy="95" cx="225" r="5"/>
  <circle cy="105" cx="245" r="5"/>
  <circle cy="105" cx="255" r="5"/>
  <circle cy="105" cx="265" r="5"/>
  <circle cy="105" cx="275" r="5"/>
  <circle cy="105" cx="285" r="5"/>
  <circle cy="105" cx="295" r="5"/>
  <circle cy="105" cx="305" r="5"/>
  <circle cy="5" cx="245" r="5"/>
  <circle cy="5" cx="255" r="5"/>
  <circle cy="5" cx="265" r="5"/>
  <circle cy="5" cx="275" r="5"/>
  <circle cy="5" cx="285" r="5"/>
  <circle cy="5" cx="295" r="5"/>
  <circle cy="5" cx="305" r="5"/>
  <circle cy="15" cx="245" r="5"/>
  <circle cy="25" cx="305" r="5"/>
  <circle cy="15" cx="305" r="5"/>
  <circle cy="25" cx="245" r="5"/>
  <circle cy="25" cx="265" r="5"/>
  <circle cy="25" cx="275" r="5"/>
  <circle cy="25" cx="285" r="5"/>
  <circle cy="35" cx="245" r="5"/>
  <circle cy="35" cx="265" r="5"/>
  <circle cy="35" cx="275" r="5"/>
  <circle cy="35" cx="285" r="5"/>
  <circle cy="35" cx="305" r="5"/>
  <circle cy="45" cx="245" r="5"/>
  <circle cy="45" cx="265" r="5"/>
  <circle cy="45" cx="275" r="5"/>
  <circle cy="45" cx="285" r="5"/>
  <circle cy="45" cx="305" r="5"/>
  <circle cy="55" cx="245" r="5"/>
  <circle cy="95" cx="275" r="5"/>
  <circle cy="95" cx="285" r="5"/>
  <circle cy="55" cx="305" r="5"/>
  <circle cy="65" cx="245" r="5"/>
  <circle cy="65" cx="265" r="5"/>
  <circle cy="65" cx="275" r="5"/>
  <circle cy="65" cx="285" r="5"/>
  <circle cy="65" cx="305" r="5"/>
  <circle cy="75" cx="245" r="5"/>
  <circle cy="75" cx="265" r="5"/>
  <circle cy="75" cx="275" r="5"/>
  <circle cy="75" cx="285" r="5"/>
  <circle cy="75" cx="305" r="5"/>
  <circle cy="85" cx="245" r="5"/>
  <circle cy="85" cx="265" r="5"/>
  <circle cy="85" cx="275" r="5"/>
  <circle cy="85" cx="285" r="5"/>
  <circle cy="85" cx="305" r="5"/>
  <circle cy="95" cx="245" r="5"/>
  <circle cy="95" cx="265" r="5"/>
  <circle cy="95" cx="305" r="5"/>
  <circle cy="15" cx="255" r="5"/>
  <circle cy="15" cx="295" r="5"/>
  <g id="N" fill="#fff">
   <circle cy="105" cx="325" r="5"/>
   <circle cy="105" cx="335" r="5"/>
   <circle cy="105" cx="345" r="5"/>
   <circle cy="105" cx="355" r="5"/>
   <circle cy="105" cx="365" r="5"/>
   <circle cy="105" cx="375" r="5"/>
   <circle cy="105" cx="385" r="5"/>
   <circle cy="5" cx="325" r="5"/>
   <circle cy="5" cx="335" r="5"/>
   <circle cy="5" cx="345" r="5"/>
   <circle cy="5" cx="355" r="5"/>
   <circle cy="5" cx="365" r="5"/>
   <circle cy="5" cx="375" r="5"/>
   <circle cy="5" cx="385" r="5"/>
   <circle cy="15" cx="325" r="5"/>
   <circle cy="35" cx="385" r="5"/>
   <circle cy="15" cx="385" r="5"/>
   <circle cy="25" cx="325" r="5"/>
   <circle cy="35" cx="345" r="5"/>
   <circle cy="35" cx="355" r="5"/>
   <circle cy="35" cx="365" r="5"/>
   <circle cy="35" cx="325" r="5"/>
   <circle cy="15" cx="365" r="5"/>
   <circle cy="45" cx="355" r="5"/>
   <circle cy="45" cx="365" r="5"/>
   <circle cy="45" cx="385" r="5"/>
   <circle cy="45" cx="325" r="5"/>
   <circle cy="65" cx="345" r="5"/>
   <circle cy="55" cx="345" r="5"/>
   <circle cy="55" cx="365" r="5"/>
   <circle cy="55" cx="385" r="5"/>
   <circle cy="55" cx="325" r="5"/>
   <circle cy="95" cx="355" r="5"/>
   <circle cy="95" cx="365" r="5"/>
   <circle cy="65" cx="385" r="5"/>
   <circle cy="65" cx="325" r="5"/>
   <circle cy="75" cx="345" r="5"/>
   <circle cy="75" cx="355" r="5"/>
   <circle cy="75" cx="365" r="5"/>
   <circle cy="75" cx="385" r="5"/>
   <circle cy="75" cx="325" r="5"/>
   <circle cy="25" cx="385" r="5"/>
   <circle cy="85" cx="325" r="5"/>
   <circle cy="85" cx="345" r="5"/>
   <circle cy="85" cx="355" r="5"/>
   <circle cy="85" cx="365" r="5"/>
   <circle cy="85" cx="385" r="5"/>
   <circle cy="95" cx="325" r="5"/>
   <circle cy="95" cx="345" r="5"/>
   <circle cy="95" cx="385" r="5"/>
   <circle cy="15" cx="345" r="5"/>
   <circle cy="15" cx="355" r="5"/>
   <circle cy="65" cx="355" r="5"/>
   <circle cy="25" cx="345" r="5"/>
   <circle cy="25" cx="355" r="5"/>
   <circle cy="25" cx="365" r="5"/>
  </g>
 </g>
 <use xlink:href="#N" transform="translate(80 .0000050025)" height="100%" width="100%" y="0" x="0"/>
 <g fill="#fff">
  <g id="E" fill="#fff">
   <circle cy="105" cx="485" r="5"/>
   <circle cy="105" cx="495" r="5"/>
   <circle cy="105" cx="505" r="5"/>
   <circle cy="105" cx="515" r="5"/>
   <circle cy="105" cx="525" r="5"/>
   <circle cy="105" cx="535" r="5"/>
   <circle cy="105" cx="545" r="5"/>
   <circle cy="5" cx="485" r="5"/>
   <circle cy="5" cx="495" r="5"/>
   <circle cy="5" cx="505" r="5"/>
   <circle cy="5" cx="515" r="5"/>
   <circle cy="5" cx="525" r="5"/>
   <circle cy="5" cx="535" r="5"/>
   <circle cy="5" cx="545" r="5"/>
   <circle cy="15" cx="485" r="5"/>
   <circle cy="25" cx="545" r="5"/>
   <circle cy="15" cx="545" r="5"/>
   <circle cy="25" cx="485" r="5"/>
   <circle cy="25" cx="505" r="5"/>
   <circle cy="25" cx="515" r="5"/>
   <circle cy="25" cx="525" r="5"/>
   <circle cy="35" cx="485" r="5"/>
   <circle cy="35" cx="505" r="5"/>
   <circle cy="35" cx="515" r="5"/>
   <circle cy="35" cx="525" r="5"/>
   <circle cy="35" cx="545" r="5"/>
   <circle cy="45" cx="485" r="5"/>
   <circle cy="45" cx="505" r="5"/>
   <circle cy="45" cx="515" r="5"/>
   <circle cy="45" cx="525" r="5"/>
   <circle cy="45" cx="545" r="5"/>
   <circle cy="55" cx="485" r="5"/>
   <circle cy="65" cx="535" r="5"/>
   <circle cy="45" cx="535" r="5"/>
   <circle cy="55" cx="545" r="5"/>
   <circle cy="65" cx="485" r="5"/>
   <circle cy="65" cx="505" r="5"/>
   <circle cy="65" cx="515" r="5"/>
   <circle cy="65" cx="525" r="5"/>
   <circle cy="65" cx="545" r="5"/>
   <circle cy="75" cx="485" r="5"/>
   <circle cy="75" cx="505" r="5"/>
   <circle cy="75" cx="515" r="5"/>
   <circle cy="75" cx="525" r="5"/>
   <circle cy="75" cx="545" r="5"/>
   <circle cy="85" cx="485" r="5"/>
   <circle cy="85" cx="505" r="5"/>
   <circle cy="85" cx="515" r="5"/>
   <circle cy="85" cx="525" r="5"/>
   <circle cy="85" cx="545" r="5"/>
   <circle cy="95" cx="485" r="5"/>
   <circle cy="75" cx="535" r="5"/>
   <circle cy="95" cx="545" r="5"/>
   <circle cy="25" cx="535" r="5"/>
   <circle cy="35" cx="535" r="5"/>
   <circle cy="85" cx="535" r="5"/>
  </g>
  <circle cy="105" cx="565" r="5"/>
  <circle cy="105" cx="575" r="5"/>
  <circle cy="105" cx="585" r="5"/>
  <circle cy="105" cx="595" r="5"/>
  <circle cy="105" cx="605" r="5"/>
  <circle cy="105" cx="615" r="5"/>
  <circle cy="105" cx="625" r="5"/>
  <circle cy="5" cx="565" r="5"/>
  <circle cy="5" cx="575" r="5"/>
  <circle cy="5" cx="585" r="5"/>
  <circle cy="5" cx="595" r="5"/>
  <circle cy="5" cx="605" r="5"/>
  <circle cy="5" cx="615" r="5"/>
  <circle cy="5" cx="625" r="5"/>
  <circle cy="15" cx="565" r="5"/>
  <circle cy="25" cx="625" r="5"/>
  <circle cy="15" cx="625" r="5"/>
  <circle cy="25" cx="565" r="5"/>
  <circle cy="25" cx="585" r="5"/>
  <circle cy="25" cx="595" r="5"/>
  <circle cy="25" cx="605" r="5"/>
  <circle cy="35" cx="565" r="5"/>
  <circle cy="35" cx="585" r="5"/>
  <circle cy="35" cx="595" r="5"/>
  <circle cy="35" cx="605" r="5"/>
  <circle cy="35" cx="625" r="5"/>
  <circle cy="45" cx="565" r="5"/>
  <circle cy="45" cx="585" r="5"/>
  <circle cy="45" cx="595" r="5"/>
  <circle cy="45" cx="605" r="5"/>
  <circle cy="45" cx="625" r="5"/>
  <circle cy="55" cx="565" r="5"/>
  <circle cy="15" cx="575" r="5"/>
  <circle cy="45" cx="615" r="5"/>
  <circle cy="55" cx="625" r="5"/>
  <circle cy="65" cx="565" r="5"/>
  <circle cy="65" cx="585" r="5"/>
  <circle cy="65" cx="595" r="5"/>
  <circle cy="65" cx="605" r="5"/>
  <circle cy="65" cx="625" r="5"/>
  <circle cy="75" cx="565" r="5"/>
  <circle cy="75" cx="585" r="5"/>
  <circle cy="75" cx="595" r="5"/>
  <circle cy="75" cx="605" r="5"/>
  <circle cy="75" cx="625" r="5"/>
  <circle cy="85" cx="565" r="5"/>
  <circle cy="85" cx="585" r="5"/>
  <circle cy="85" cx="595" r="5"/>
  <circle cy="85" cx="605" r="5"/>
  <circle cy="85" cx="625" r="5"/>
  <circle cy="95" cx="565" r="5"/>
  <circle cy="55" cx="575" r="5"/>
  <circle cy="95" cx="625" r="5"/>
  <circle cy="25" cx="615" r="5"/>
  <circle cy="35" cx="615" r="5"/>
  <circle cy="65" cx="575" r="5"/>
  <circle cy="55" cx="615" r="5"/>
  <circle cy="95" cx="615" r="5"/>
  <circle cy="75" cx="575" r="5"/>
  <circle cy="85" cx="575" r="5"/>
  <g transform="translate(0,120)">
   <circle cy="105" cx="5" r="5"/>
   <circle cy="105" cx="15" r="5"/>
   <circle cy="105" cx="25" r="5"/>
   <circle cy="105" cx="35" r="5"/>
   <circle cy="105" cx="45" r="5"/>
   <circle cy="105" cx="55" r="5"/>
   <circle cy="105" cx="65" r="5"/>
   <circle cy="5" cx="5" r="5"/>
   <circle cy="5" cx="15" r="5"/>
   <circle cy="5" cx="25" r="5"/>
   <circle cy="5" cx="35" r="5"/>
   <circle cy="5" cx="45" r="5"/>
   <circle cy="5" cx="55" r="5"/>
   <circle cy="5" cx="65" r="5"/>
   <circle cy="15" cx="5" r="5"/>
   <circle cy="15" cx="55" r="5"/>
   <circle cy="35" cx="45" r="5"/>
   <circle cy="15" cx="65" r="5"/>
   <circle cy="25" cx="5" r="5"/>
   <circle cy="25" cx="25" r="5"/>
   <circle cy="25" cx="35" r="5"/>
   <circle cy="25" cx="45" r="5"/>
   <circle cy="25" cx="65" r="5"/>
   <circle cy="35" cx="5" r="5"/>
   <circle cy="35" cx="25" r="5"/>
   <circle cy="35" cx="35" r="5"/>
   <circle cy="55" cx="45" r="5"/>
   <circle cy="35" cx="65" r="5"/>
   <circle cy="45" cx="5" r="5"/>
   <circle cy="95" cx="45" r="5"/>
   <circle cy="45" cx="55" r="5"/>
   <circle cy="45" cx="65" r="5"/>
   <circle cy="55" cx="5" r="5"/>
   <circle cy="85" cx="45" r="5"/>
   <circle cy="55" cx="25" r="5"/>
   <circle cy="55" cx="35" r="5"/>
   <circle cy="55" cx="55" r="5"/>
   <circle cy="55" cx="65" r="5"/>
   <circle cy="65" cx="5" r="5"/>
   <circle cy="75" cx="45" r="5"/>
   <circle cy="65" cx="25" r="5"/>
   <circle cy="65" cx="35" r="5"/>
   <circle cy="65" cx="55" r="5"/>
   <circle cy="65" cx="65" r="5"/>
   <circle cy="75" cx="5" r="5"/>
   <circle cy="65" cx="45" r="5"/>
   <circle cy="75" cx="25" r="5"/>
   <circle cy="75" cx="35" r="5"/>
   <circle cy="75" cx="55" r="5"/>
   <circle cy="75" cx="65" r="5"/>
   <circle cy="85" cx="5" r="5"/>
   <circle cy="85" cx="25" r="5"/>
   <circle cy="85" cx="35" r="5"/>
   <circle cy="85" cx="55" r="5"/>
   <circle cy="85" cx="65" r="5"/>
   <circle cy="95" cx="5" r="5"/>
   <circle cy="95" cx="25" r="5"/>
   <circle cy="95" cx="35" r="5"/>
   <circle cy="95" cx="55" r="5"/>
   <circle cy="95" cx="65" r="5"/>
  </g>
  <g transform="translate(0,120)">
   <circle cy="105" cx="165" r="5"/>
   <circle cy="105" cx="175" r="5"/>
   <circle cy="105" cx="185" r="5"/>
   <circle cy="105" cx="195" r="5"/>
   <circle cy="105" cx="205" r="5"/>
   <circle cy="105" cx="215" r="5"/>
   <circle cy="105" cx="225" r="5"/>
   <circle cy="5" cx="165" r="5"/>
   <circle cy="5" cx="175" r="5"/>
   <circle cy="5" cx="185" r="5"/>
   <circle cy="5" cx="195" r="5"/>
   <circle cy="5" cx="205" r="5"/>
   <circle cy="5" cx="215" r="5"/>
   <circle cy="5" cx="225" r="5"/>
   <circle cy="15" cx="165" r="5"/>
   <circle cy="15" cx="185" r="5"/>
   <circle cy="25" cx="225" r="5"/>
   <circle cy="15" cx="225" r="5"/>
   <circle cy="25" cx="165" r="5"/>
   <circle cy="25" cx="185" r="5"/>
   <circle cy="15" cx="195" r="5"/>
   <circle cy="25" cx="195" r="5"/>
   <circle cy="25" cx="205" r="5"/>
   <circle cy="35" cx="165" r="5"/>
   <circle cy="35" cx="185" r="5"/>
   <circle cy="35" cx="195" r="5"/>
   <circle cy="35" cx="205" r="5"/>
   <circle cy="35" cx="225" r="5"/>
   <circle cy="45" cx="165" r="5"/>
   <circle cy="45" cx="185" r="5"/>
   <circle cy="45" cx="195" r="5"/>
   <circle cy="45" cx="205" r="5"/>
   <circle cy="45" cx="225" r="5"/>
   <circle cy="55" cx="165" r="5"/>
   <circle cy="55" cx="195" r="5"/>
   <circle cy="55" cx="205" r="5"/>
   <circle cy="55" cx="225" r="5"/>
   <circle cy="65" cx="165" r="5"/>
   <circle cy="65" cx="185" r="5"/>
   <circle cy="65" cx="195" r="5"/>
   <circle cy="65" cx="205" r="5"/>
   <circle cy="65" cx="225" r="5"/>
   <circle cy="75" cx="165" r="5"/>
   <circle cy="75" cx="185" r="5"/>
   <circle cy="75" cx="195" r="5"/>
   <circle cy="75" cx="205" r="5"/>
   <circle cy="75" cx="225" r="5"/>
   <circle cy="85" cx="165" r="5"/>
   <circle cy="85" cx="185" r="5"/>
   <circle cy="85" cx="195" r="5"/>
   <circle cy="85" cx="205" r="5"/>
   <circle cy="85" cx="225" r="5"/>
   <circle cy="95" cx="165" r="5"/>
   <circle cy="55" cx="185" r="5"/>
   <circle cy="15" cx="205" r="5"/>
   <circle cy="95" cx="225" r="5"/>
   <circle cy="25" cx="215" r="5"/>
   <circle cy="35" cx="215" r="5"/>
   <circle cy="45" cx="215" r="5"/>
   <circle cy="15" cx="215" r="5"/>
   <circle cy="55" cx="215" r="5"/>
   <circle cy="65" cx="215" r="5"/>
   <circle cy="75" cx="215" r="5"/>
   <circle cy="85" cx="215" r="5"/>
  </g>
  <g transform="translate(0,120)">
   <circle cy="105" cx="245" r="5"/>
   <circle cy="105" cx="255" r="5"/>
   <circle cy="105" cx="265" r="5"/>
   <circle cy="105" cx="275" r="5"/>
   <circle cy="105" cx="285" r="5"/>
   <circle cy="105" cx="295" r="5"/>
   <circle cy="105" cx="305" r="5"/>
   <circle cy="5" cx="245" r="5"/>
   <circle cy="5" cx="255" r="5"/>
   <circle cy="5" cx="265" r="5"/>
   <circle cy="5" cx="275" r="5"/>
   <circle cy="5" cx="285" r="5"/>
   <circle cy="5" cx="295" r="5"/>
   <circle cy="5" cx="305" r="5"/>
   <circle cy="15" cx="245" r="5"/>
   <circle cy="25" cx="305" r="5"/>
   <circle cy="15" cx="305" r="5"/>
   <circle cy="25" cx="245" r="5"/>
   <circle cy="25" cx="265" r="5"/>
   <circle cy="35" cx="255" r="5"/>
   <circle cy="25" cx="285" r="5"/>
   <circle cy="35" cx="245" r="5"/>
   <circle cy="35" cx="265" r="5"/>
   <circle cy="45" cx="255" r="5"/>
   <circle cy="35" cx="285" r="5"/>
   <circle cy="35" cx="305" r="5"/>
   <circle cy="45" cx="245" r="5"/>
   <circle cy="45" cx="265" r="5"/>
   <circle cy="55" cx="255" r="5"/>
   <circle cy="45" cx="285" r="5"/>
   <circle cy="45" cx="305" r="5"/>
   <circle cy="55" cx="245" r="5"/>
   <circle cy="95" cx="255" r="5"/>
   <circle cy="95" cx="285" r="5"/>
   <circle cy="55" cx="305" r="5"/>
   <circle cy="65" cx="245" r="5"/>
   <circle cy="65" cx="265" r="5"/>
   <circle cy="65" cx="255" r="5"/>
   <circle cy="65" cx="285" r="5"/>
   <circle cy="65" cx="305" r="5"/>
   <circle cy="75" cx="245" r="5"/>
   <circle cy="75" cx="265" r="5"/>
   <circle cy="75" cx="255" r="5"/>
   <circle cy="75" cx="285" r="5"/>
   <circle cy="75" cx="305" r="5"/>
   <circle cy="85" cx="245" r="5"/>
   <circle cy="85" cx="265" r="5"/>
   <circle cy="85" cx="255" r="5"/>
   <circle cy="85" cx="285" r="5"/>
   <circle cy="85" cx="305" r="5"/>
   <circle cy="95" cx="245" r="5"/>
   <circle cy="95" cx="265" r="5"/>
   <circle cy="95" cx="305" r="5"/>
   <circle cy="25" cx="255" r="5"/>
   <circle cy="25" cx="295" r="5"/>
   <circle cy="55" cx="265" r="5"/>
   <circle cy="55" cx="285" r="5"/>
   <circle cy="35" cx="295" r="5"/>
   <circle cy="45" cx="295" r="5"/>
   <circle cy="95" cx="295" r="5"/>
   <circle cy="65" cx="295" r="5"/>
   <circle cy="75" cx="295" r="5"/>
   <circle cy="85" cx="295" r="5"/>
   <circle cy="55" cx="295" r="5"/>
  </g>
 </g>
 <use xlink:href="#O" transform="translate(240 120)" height="100%" width="100%" y="0" x="0"/>
 <use xlink:href="#N" transform="translate(80 120)" height="100%" width="100%" y="0" x="0"/>
 <use xlink:href="#N" transform="translate(240 120)" height="100%" width="100%" y="0" x="0"/>
 <use xlink:href="#E" transform="translate(-400 120)" height="100%" width="100%" y="0" x="0"/>
 <use xlink:href="#E" transform="translate(0 120)" height="100%" width="100%" y="0" x="0"/>
</svg>
